# xmcd
#
# Track frame offsets:
#	150
#	5338
#	33161
#	46349
#	70721
#	84882
#	101216
#	110695
#	128217
#	150416
#	170161
#	200518
#
# Disc length: 3018 seconds
#
# Revision: 1
# Processed by: cddbd v1.5.2PL0 Copyright (c) Steve Scherf et al.
# Submitted via: audiograbber 1.83.01
#
DISCID=950bc80c
DTITLE=Ulf and Eric Wakenius - Father And Son
DYEAR=2017
DGENRE=Guitar Jazz
TTITLE0=Intro: Birdland [excerpt]
TTITLE1=Irish Vagabond
TTITLE2=Meine schöne Heimat - Vem kan segla förutan vind
TTITLE3=Mistral
TTITLE4=Once Upon A Time In America
TTITLE5=Paco's Delight
TTITLE6=Scarborough Fair
TTITLE7=Dodge The Dodo - When God Created The Coffee Break
TTITLE8=Eleanor Rigby
TTITLE9=Father And Son
TTITLE10=Birdland
TTITLE11=Help The Poor [bonus track]
EXTD=
EXTT0=
EXTT1=
EXTT2=
EXTT3=
EXTT4=
EXTT5=
EXTT6=
EXTT7=
EXTT8=
EXTT9=
EXTT10=
EXTT11=
PLAYORDER=
